# xmcd
#
# Track frame offsets: 
#        150
#        19724
#        36037
#        53031
#        72991
#        89558
#        105729
#        127805
#        150805
#        171193
#        191475
#        205929
#
# Disc length: 3080 seconds
#
# Revision: 0
# Processed by: cddbd v1.5.2PL0 Copyright (c) Steve Scherf et al.
# Submitted via: ExactAudioCopy v1.3
#
DISCID=940c060c
DTITLE=Melody Angel - In The Fire
DYEAR=2017
DGENRE=Blues
TTITLE0=Outside My Radius
TTITLE1=Always On Me
TTITLE2=In The Fire
TTITLE3=If I Don't Know
TTITLE4=Mama Said
TTITLE5=Long Way Down
TTITLE6=I'm Scaring Me
TTITLE7=Drive By
TTITLE8=20 Something
TTITLE9=Nobody Gets Away
TTITLE10=The Stones
TTITLE11=In This America
EXTD=
EXTT0=
EXTT1=
EXTT2=
EXTT3=
EXTT4=
EXTT5=
EXTT6=
EXTT7=
EXTT8=
EXTT9=
EXTT10=
EXTT11=
PLAYORDER=
